<svg width="274" height="274" viewBox="0 0 274 274" fill="none" xmlns="http://www.w3.org/2000/svg">
<path fill-rule="evenodd" clip-rule="evenodd" d="M67.5875 18.1434C74.3359 7.82267 84.9601 0.262451 97.1575 0.262451C109.355 0.262451 119.979 7.81023 126.728 18.1309C133.476 28.4516 137.055 41.7939 137.055 56.218C137.055 70.6421 133.476 83.9719 126.728 94.2926C119.979 104.613 109.355 112.174 97.1575 112.174C84.9601 112.174 74.3359 104.626 67.5875 94.3051C60.839 83.9844 57.2596 70.6421 57.2596 56.218C57.2596 41.7939 60.839 28.464 67.5875 18.1434ZM137.055 56.218C137.055 41.7939 140.635 28.464 147.383 18.1434C154.132 7.82267 164.756 0.262451 176.953 0.262451C189.151 0.262451 199.775 7.81023 206.523 18.1309C213.272 28.4516 216.851 41.7939 216.851 56.218C216.851 70.6421 213.272 83.9719 206.523 94.2926C199.775 104.613 189.151 112.174 176.953 112.174C164.767 112.174 154.132 104.626 147.383 94.3051C140.635 83.9844 137.055 70.6421 137.055 56.218ZM108.215 32.5177C104.636 27.0714 100.714 25.1316 97.1575 25.1316C93.6009 25.1316 89.6795 27.0714 86.1001 32.5177C82.5663 37.9392 80.0584 46.6061 80.0584 56.218C80.0584 65.8299 82.5663 74.4844 86.1001 79.9183C89.6795 85.3646 93.6009 87.3044 97.1575 87.3044C100.714 87.3044 104.636 85.3646 108.215 79.9183C111.749 74.4968 114.257 65.8299 114.257 56.218C114.257 46.6061 111.749 37.9516 108.215 32.5177ZM188.011 32.5177C184.431 27.0714 180.51 25.1316 176.953 25.1316C173.397 25.1316 169.475 27.0714 165.896 32.5177C162.362 37.9392 159.854 46.6061 159.854 56.218C159.854 65.8299 162.362 74.4844 165.896 79.9183C169.475 85.3646 173.397 87.3044 176.953 87.3044C180.51 87.3044 184.431 85.3646 188.011 79.9183C191.544 74.4968 194.052 65.8299 194.052 56.218C194.052 46.6061 191.544 37.9516 188.011 32.5177ZM10.5905 105.185C17.339 94.8646 27.9632 87.3044 40.1606 87.3044C52.3579 87.3044 62.9821 94.8522 69.7306 105.173C76.479 115.494 80.0584 128.836 80.0584 143.26C80.0584 157.684 76.479 171.014 69.7306 181.335C62.9821 191.655 52.3579 199.215 40.1606 199.215C27.9632 199.215 17.339 191.668 10.5905 181.347C3.84211 171.026 0.262695 157.684 0.262695 143.26C0.262695 128.836 3.84211 115.506 10.5905 105.185ZM204.38 105.185C211.129 94.8646 221.753 87.3044 233.95 87.3044C246.148 87.3044 256.772 94.8522 263.52 105.173C270.269 115.494 273.848 128.836 273.848 143.26C273.848 157.684 270.269 171.014 263.52 181.335C256.772 191.655 246.148 199.215 233.95 199.215C221.753 199.215 211.129 191.668 204.38 181.347C197.632 171.026 194.052 157.684 194.052 143.26C194.052 128.836 197.632 115.506 204.38 105.185ZM51.218 119.56C47.6386 114.113 43.7172 112.174 40.1606 112.174C36.6039 112.174 32.6826 114.113 29.1032 119.56C25.5693 124.981 23.0615 133.648 23.0615 143.26C23.0615 152.872 25.5693 161.539 29.1032 166.96C32.6826 172.407 36.6039 174.346 40.1606 174.346C43.7172 174.346 47.6386 172.407 51.218 166.96C54.7518 161.539 57.2596 152.872 57.2596 143.26C57.2596 133.648 54.7518 124.994 51.218 119.56ZM245.008 119.56C241.428 114.113 237.507 112.174 233.95 112.174C230.394 112.174 226.472 114.113 222.893 119.56C219.359 124.981 216.851 133.648 216.851 143.26C216.851 152.872 219.359 161.526 222.893 166.96C226.472 172.407 230.394 174.346 233.95 174.346C237.507 174.346 241.428 172.407 245.008 166.96C248.541 161.539 251.049 152.872 251.049 143.26C251.049 133.648 248.541 124.994 245.008 119.56Z" fill="white"/>
<path fill-rule="evenodd" clip-rule="evenodd" d="M137.055 137.043C121.86 137.043 111.259 147.799 106.049 157.249C100.874 166.699 97.6819 174.558 94.6496 177.84C92.9055 179.793 81.9051 184.306 70.4373 190.685C64.7035 193.881 58.9239 198.146 54.0564 204.674C49.1547 211.202 45.8489 220.218 45.8489 230.327C45.8489 254.201 63.8599 273.848 85.7467 273.848C95.6186 273.848 105.924 270.366 116.012 267.257C126.146 264.074 137.055 261.388 137.055 261.388C137.055 261.388 147.965 264.074 158.076 267.233C168.176 270.341 178.481 273.823 188.353 273.823C210.239 273.823 228.25 254.176 228.25 230.302C228.25 220.429 224.91 211.401 220.043 205.06C215.198 198.681 209.362 194.739 203.673 191.444C192.274 184.854 181.068 179.631 179.45 177.84C176.714 174.893 173.636 166.774 168.392 157.274C163.16 147.736 152.331 137.043 137.055 137.043ZM148.797 170.069C145.411 163.901 144.579 161.912 137.055 161.912L137.044 161.862C129.546 161.862 128.657 163.49 125.454 169.356L125.303 169.634C121.917 175.727 119.409 186.52 111.053 195.684C101.421 206.191 89.6111 208.056 81.13 212.782C76.8894 215.132 73.4012 217.619 71.5089 220.155C69.6166 222.692 68.659 225.266 68.659 230.277C68.659 240.722 76.1826 248.929 85.7581 248.929C89.0639 248.929 99.711 246.193 109.628 243.085C119.546 240.013 127.753 236.494 137.055 236.494C146.357 236.494 154.565 240.013 164.482 243.085C174.4 246.193 185.047 248.929 188.353 248.929C197.928 248.929 205.452 240.722 205.452 230.277C205.452 225.875 204.574 223.525 202.602 220.951C200.618 218.365 197.313 215.691 192.981 213.179C184.329 208.156 172.45 205.918 163.046 195.721C154.77 186.681 152.217 176.224 148.797 170.069Z" fill="white"/>
<path d="M176.953 25.1316C180.51 25.1316 184.431 27.0714 188.011 32.5177C191.544 37.9516 194.052 46.6061 194.052 56.218C194.052 65.8299 191.544 74.4968 188.011 79.9183C184.431 85.3646 180.51 87.3044 176.953 87.3044C173.397 87.3044 169.475 85.3646 165.896 79.9183C162.362 74.4844 159.854 65.8299 159.854 56.218C159.854 46.6061 162.362 37.9392 165.896 32.5177C169.475 27.0714 173.397 25.1316 176.953 25.1316Z" fill="white"/>
<path d="M233.95 112.174C237.507 112.174 241.428 114.113 245.008 119.56C248.541 124.994 251.049 133.648 251.049 143.26C251.049 152.872 248.541 161.539 245.008 166.96C241.428 172.407 237.507 174.346 233.95 174.346C230.394 174.346 226.472 172.407 222.893 166.96C219.359 161.526 216.851 152.872 216.851 143.26C216.851 133.648 219.359 124.981 222.893 119.56C226.472 114.113 230.394 112.174 233.95 112.174Z" fill="white"/>
<path d="M137.055 161.912C144.579 161.912 145.411 163.901 148.797 170.069C152.217 176.224 154.77 186.681 163.046 195.721C172.45 205.918 184.329 208.156 192.981 213.179C197.313 215.691 200.618 218.365 202.602 220.951C204.574 223.525 205.452 225.875 205.452 230.277C205.452 240.722 197.928 248.929 188.353 248.929C185.047 248.929 174.4 246.193 164.482 243.085C154.565 240.013 146.357 236.494 137.055 236.494C127.753 236.494 119.546 240.013 109.628 243.085C99.711 246.193 89.0639 248.929 85.7581 248.929C76.1826 248.929 68.659 240.722 68.659 230.277C68.659 225.266 69.6166 222.692 71.5089 220.155C73.4012 217.619 76.8894 215.132 81.13 212.782C89.6111 208.056 101.421 206.191 111.053 195.684C119.409 186.52 121.917 175.727 125.303 169.634L125.454 169.356C128.657 163.49 129.546 161.862 137.044 161.862L137.055 161.912Z" fill="white"/>
<path d="M40.1606 112.174C43.7172 112.174 47.6386 114.113 51.218 119.56C54.7518 124.994 57.2596 133.648 57.2596 143.26C57.2596 152.872 54.7518 161.539 51.218 166.96C47.6386 172.407 43.7172 174.346 40.1606 174.346C36.6039 174.346 32.6826 172.407 29.1032 166.96C25.5693 161.539 23.0615 152.872 23.0615 143.26C23.0615 133.648 25.5693 124.981 29.1032 119.56C32.6826 114.113 36.6039 112.174 40.1606 112.174Z" fill="white"/>
<path d="M97.1575 25.1316C100.714 25.1316 104.636 27.0714 108.215 32.5177C111.749 37.9516 114.257 46.6061 114.257 56.218C114.257 65.8299 111.749 74.4968 108.215 79.9183C104.636 85.3646 100.714 87.3044 97.1575 87.3044C93.6009 87.3044 89.6795 85.3646 86.1001 79.9183C82.5663 74.4844 80.0584 65.8299 80.0584 56.218C80.0584 46.6061 82.5663 37.9392 86.1001 32.5177C89.6795 27.0714 93.6009 25.1316 97.1575 25.1316Z" fill="white"/>
</svg>
